<svg width="30" height="30" viewBox="0 0 30 30" fill="none" xmlns="http://www.w3.org/2000/svg">
<g id="13 shopping cart heart copy 1">
<g id="Group">
<path id="Vector" d="M7.26733 10.5093L9.41967 19.8907H25.5143L27.6667 10.5093H12.9707H7.26733Z" fill="#FF718A"/>
<path id="Vector_2" d="M25.493 5.57068H19.343V7.50935H25.493V5.57068Z" fill="#FF718A"/>
</g>
<g id="Group_2">
<g id="Group_3">
<path id="Vector_3" d="M26.8477 21.5573H8.08633C7.93067 21.5573 7.79567 21.4497 7.76133 21.298L4.847 8.498C4.552 7.20167 3.41733 6.29667 2.088 6.29667H0.333333C0.149333 6.29667 0 6.14734 0 5.96334C0 5.77934 0.149333 5.63 0.333333 5.63H2.088C3.73033 5.63 5.13233 6.74834 5.497 8.35L8.352 20.891H26.5813L29.2487 9.17634H12.9707C12.7867 9.17634 12.6373 9.027 12.6373 8.843C12.6373 8.659 12.7867 8.50967 12.9707 8.50967H29.6667C29.7683 8.50967 29.864 8.55601 29.927 8.63501C29.9903 8.71434 30.0143 8.818 29.9913 8.917L27.1723 21.298C27.138 21.4497 27.0033 21.5573 26.8477 21.5573Z" fill="black"/>
<path id="Vector_4" d="M6.47938 26.1553C5.02805 26.1553 3.84705 24.9747 3.84705 23.5233C3.84705 22.072 5.02771 20.891 6.47938 20.891H26.8267C27.011 20.891 27.16 21.04 27.16 21.2243C27.16 21.4087 27.011 21.5577 26.8267 21.5577H6.47938C5.39571 21.5577 4.51371 22.4397 4.51371 23.5233C4.51371 24.607 5.39571 25.4887 6.47938 25.4887C6.66338 25.4887 6.81271 25.6377 6.81271 25.822C6.81271 26.0063 6.66338 26.1553 6.47938 26.1553Z" fill="black"/>
<path id="Vector_5" d="M24.4747 28.2697C23.1253 28.2697 22.0273 27.1717 22.0273 25.822C22.0273 24.4723 23.1253 23.3743 24.4747 23.3743C25.8243 23.3743 26.9223 24.4723 26.9223 25.822C26.9223 27.1717 25.8243 28.2697 24.4747 28.2697ZM24.4747 24.041C23.493 24.041 22.694 24.8397 22.694 25.822C22.694 26.8043 23.4927 27.603 24.4747 27.603C25.4567 27.603 26.2557 26.8043 26.2557 25.822C26.2557 24.8397 25.4567 24.041 24.4747 24.041Z" fill="black"/>
<path id="Vector_6" d="M11.3196 28.2697C9.97031 28.2697 8.87231 27.1717 8.87231 25.822C8.87231 24.4723 9.97031 23.3743 11.3196 23.3743C12.6693 23.3743 13.7673 24.4723 13.7673 25.822C13.7673 27.1717 12.6693 28.2697 11.3196 28.2697ZM11.3196 24.041C10.3376 24.041 9.53898 24.8397 9.53898 25.822C9.53898 26.8043 10.3376 27.603 11.3196 27.603C12.3016 27.603 13.1006 26.8043 13.1006 25.822C13.1006 24.8397 12.3016 24.041 11.3196 24.041Z" fill="black"/>
<path id="Vector_7" d="M19.3617 26.1554H13.434C13.25 26.1554 13.1007 26.0064 13.1007 25.822C13.1007 25.6377 13.25 25.4887 13.434 25.4887H19.3617C19.546 25.4887 19.695 25.6377 19.695 25.822C19.695 26.0064 19.546 26.1554 19.3617 26.1554Z" fill="black"/>
<path id="Vector_8" d="M26.8264 9.17599H18.0097C17.8254 9.17599 17.6764 9.02666 17.6764 8.84266V4.23733C17.6764 4.05333 17.8254 3.90399 18.0097 3.90399H26.8264C27.0107 3.90399 27.1597 4.05333 27.1597 4.23733V8.84266C27.1597 9.02699 27.0107 9.17599 26.8264 9.17599ZM18.3431 8.50933H26.4931V4.57066H18.3431V8.50933Z" fill="black"/>
<path id="Vector_9" d="M9.27035 9.17601C9.08635 9.17601 8.93701 9.02668 8.93701 8.84268V2.06368C8.93701 1.87968 9.08635 1.73035 9.27035 1.73035H20.8387C21.023 1.73035 21.172 1.87968 21.172 2.06368V4.23735C21.172 4.42135 21.023 4.57068 20.8387 4.57068C20.6543 4.57068 20.5053 4.42135 20.5053 4.23735V2.39701H9.60368V8.84268C9.60368 9.02701 9.45435 9.17601 9.27035 9.17601Z" fill="black"/>
</g>
<path id="Vector_10" d="M17.3333 19.069C17.2446 19.069 17.1599 19.034 17.0976 18.9714L13.7496 15.623C12.7303 14.6034 12.7303 12.9447 13.7496 11.9257C14.7316 10.9434 16.3076 10.9074 17.3333 11.8187C18.3583 10.9074 19.9346 10.9434 20.9173 11.9257C21.9366 12.945 21.9366 14.6037 20.9169 15.623L17.5689 18.9714C17.5066 19.034 17.4219 19.069 17.3333 19.069ZM15.5983 11.8274C15.0993 11.8274 14.6006 12.017 14.2209 12.3967C13.4616 13.156 13.4616 14.3917 14.2209 15.1514L17.3333 18.2644L20.4456 15.1517C21.2049 14.3924 21.2049 13.1564 20.4459 12.397C19.6859 11.6374 18.4506 11.6377 17.6909 12.397L17.5689 12.519C17.4386 12.649 17.2279 12.649 17.0976 12.519L16.9756 12.397C16.5959 12.0174 16.0969 11.8274 15.5983 11.8274Z" fill="black"/>
</g>
</g>
</svg>
