<svg width="26" height="26" viewBox="0 0 26 26" fill="none" xmlns="http://www.w3.org/2000/svg">
<g id="tabler-icon-bell">
<path id="Vector" d="M9.75004 18.4167V19.5C9.75004 20.362 10.0924 21.1886 10.7019 21.7981C11.3114 22.4076 12.1381 22.75 13 22.75C13.862 22.75 14.6886 22.4076 15.2981 21.7981C15.9076 21.1886 16.25 20.362 16.25 19.5V18.4167M10.8334 5.41667C10.8334 4.84203 11.0616 4.29093 11.468 3.8846C11.8743 3.47827 12.4254 3.25 13 3.25C13.5747 3.25 14.1258 3.47827 14.5321 3.8846C14.9384 4.29093 15.1667 4.84203 15.1667 5.41667C16.4108 6.00495 17.4714 6.92069 18.2348 8.06574C18.9981 9.2108 19.4355 10.542 19.5 11.9167V15.1667C19.5816 15.8402 19.8201 16.4851 20.1964 17.0496C20.5727 17.6141 21.0764 18.0824 21.6667 18.4167H4.33337C4.92372 18.0824 5.42733 17.6141 5.80366 17.0496C6.17999 16.4851 6.41851 15.8402 6.50004 15.1667V11.9167C6.56456 10.542 7.00195 9.2108 7.76532 8.06574C8.52869 6.92069 9.58926 6.00495 10.8334 5.41667Z" stroke="#333333" stroke-width="1.5" stroke-linecap="round" stroke-linejoin="round"/>
</g>
</svg>
