<svg width="26" height="26" viewBox="0 0 26 26" fill="none" xmlns="http://www.w3.org/2000/svg">
<g id="tabler-icon-garden-cart">
<path id="Vector" d="M18.9583 16.25C19.6766 16.25 20.3655 16.5353 20.8734 17.0432C21.3813 17.5511 21.6666 18.24 21.6666 18.9583C21.6666 19.6766 21.3813 20.3655 20.8734 20.8734C20.3655 21.3813 19.6766 21.6666 18.9583 21.6666C18.24 21.6666 17.5511 21.3813 17.0432 20.8734C16.5353 20.3655 16.25 19.6766 16.25 18.9583C16.25 18.24 16.5353 17.5511 17.0432 17.0432C17.5511 16.5353 18.24 16.25 18.9583 16.25ZM18.9583 16.25L22.75 8.66665H6.49996V20.5833C6.50017 20.8115 6.57245 21.0339 6.70648 21.2186C6.84051 21.4033 7.02946 21.5409 7.24636 21.6119C7.46326 21.6829 7.69704 21.6836 7.91434 21.6138C8.13164 21.5441 8.32137 21.4075 8.45646 21.2236L12.4583 15.7083V15.7679M18.9583 16.25L11.2666 15.4407C10.482 15.3583 9.73474 15.0631 9.10549 14.5872C8.47625 14.1113 7.98888 13.4726 7.69596 12.74L4.60521 5.01581C4.52507 4.81459 4.38645 4.642 4.20724 4.52034C4.02803 4.39868 3.81648 4.33354 3.59988 4.33331H2.16663" stroke="#333333" stroke-width="1.5" stroke-linecap="round" stroke-linejoin="round"/>
</g>
</svg>
