<svg width="20" height="16" viewBox="0 0 20 16" fill="none" xmlns="http://www.w3.org/2000/svg">
<g id="shape">
<path d="M8.10767 1.94635e-07H11.8923C13.3973 -9.69032e-06 14.5897 -1.76822e-05 15.5382 0.101386C16.5108 0.205368 17.3181 0.42327 18.011 0.921073C18.4129 1.20973 18.7671 1.55727 19.0613 1.95152C19.2545 2.21048 19.4064 2.48573 19.5262 2.78001C19.4771 2.79869 19.4292 2.82265 19.3833 2.85203L12.8296 7.05152C12.0091 7.57729 11.4433 7.93866 10.9714 8.17522C10.5159 8.40358 10.2093 8.48277 9.9192 8.48405C9.6291 8.48533 9.32179 8.40885 8.86418 8.18451C8.39013 7.95213 7.82104 7.59576 6.99574 7.07725L0.412106 2.94096C0.54025 2.58545 0.710673 2.25715 0.938743 1.95152C1.23294 1.55727 1.58715 1.20973 1.98895 0.921073C2.68189 0.42327 3.48916 0.205368 4.46176 0.101386C5.41025 -1.75252e-05 6.60268 -9.69035e-06 8.10767 1.94635e-07Z" fill="#333333"/>
<path d="M0.0879784 4.52547C-1.70228e-05 5.43138 -9.35041e-06 6.55545 1.98367e-07 7.95504V8.04495C-9.87623e-06 9.52161 -1.80138e-05 10.6916 0.103331 11.6222C0.209308 12.5765 0.43139 13.3686 0.938743 14.0485C1.23294 14.4427 1.58715 14.7903 1.98895 15.0789C2.68189 15.5767 3.48916 15.7946 4.46176 15.8986C5.41025 16 6.60266 16 8.10764 16H11.8923C13.3973 16 14.5898 16 15.5382 15.8986C16.5108 15.7946 17.3181 15.5767 18.011 15.0789C18.4129 14.7903 18.7671 14.4427 19.0613 14.0485C19.5686 13.3686 19.7907 12.5765 19.8967 11.6222C20 10.6916 20 9.52166 20 8.04504V7.95505C20 6.47843 20 5.3084 19.8967 4.37778C19.8947 4.36029 19.8927 4.34286 19.8907 4.32548L13.634 8.33466C12.8567 8.83273 12.2229 9.2389 11.6697 9.51622C11.0919 9.80588 10.542 9.9872 9.9261 9.98991C9.31017 9.99263 8.75868 9.81617 8.17822 9.53162C7.62249 9.25919 6.98497 8.85865 6.20318 8.36746L0.0879784 4.52547Z" fill="#333333"/>
</g>
</svg>
