<svg width="22" height="22" viewBox="0 0 22 22" fill="none" xmlns="http://www.w3.org/2000/svg">
<path id="Vector" d="M21.4948 4.45919L21.495 4.45918L21.4943 4.44568C21.3784 2.2467 19.5605 0.5 17.333 0.5H4.667V0.499836L4.65418 0.500164L4.45918 0.505164L4.45918 0.504982L4.44568 0.505693C2.2467 0.621609 0.5 2.43952 0.5 4.667V17.333H0.499836L0.500164 17.3458L0.505164 17.5408L0.504974 17.5408L0.505708 17.5546C0.562439 18.6199 1.02561 19.6229 1.79979 20.3569C2.57397 21.0909 3.60019 21.5001 4.667 21.5H17.333V21.5002L17.3458 21.4998L17.5408 21.4948L17.5408 21.495L17.5543 21.4943C19.7533 21.3784 21.5 19.5605 21.5 17.333V4.667H21.5002L21.4998 4.65419L21.4948 4.45919Z" stroke="#999999" stroke-linecap="round" stroke-linejoin="round"/>
</svg>
