<svg width="26" height="26" viewBox="0 0 26 26" fill="none" xmlns="http://www.w3.org/2000/svg">
<g id="tabler-icon-heart">
<path id="Vector" d="M21.125 13.6197L13 21.6667L4.87504 13.6197C4.33912 13.0982 3.91699 12.4714 3.63522 11.7787C3.35345 11.086 3.21815 10.3425 3.23784 9.59502C3.25753 8.8475 3.43178 8.11216 3.74963 7.43529C4.06747 6.75842 4.52202 6.1547 5.08465 5.66214C5.64728 5.16957 6.30581 4.79884 7.01875 4.57328C7.7317 4.34772 8.48363 4.27222 9.22719 4.35154C9.97075 4.43086 10.6898 4.66328 11.3392 5.03416C11.9885 5.40504 12.554 5.90634 13 6.50651C13.448 5.9107 14.0142 5.41377 14.6631 5.04683C15.3119 4.67989 16.0296 4.45083 16.7711 4.37399C17.5125 4.29715 18.2619 4.37418 18.9722 4.60027C19.6825 4.82635 20.3386 5.19662 20.8992 5.6879C21.4599 6.17918 21.9131 6.7809 22.2305 7.45539C22.5479 8.12988 22.7227 8.86263 22.7439 9.60778C22.7651 10.3529 22.6322 11.0944 22.3537 11.7859C22.0751 12.4773 21.6569 13.1038 21.125 13.6262" stroke="#333333" stroke-width="1.5" stroke-linecap="round" stroke-linejoin="round"/>
</g>
</svg>
