<svg width="20" height="20" viewBox="0 0 20 20" fill="none" xmlns="http://www.w3.org/2000/svg">
<path d="M11.2276 0.118955C10.4169 -0.0396517 9.58308 -0.0396517 8.77238 0.118955C7.62407 0.343613 6.57818 0.99212 4.87805 2.0463L4.58819 2.22596C3.05522 3.17577 2.11177 3.76032 1.43729 4.58552C0.960481 5.16888 0.591021 5.83199 0.346056 6.54407C-0.000456967 7.55135 -0.000276466 8.65979 1.67766e-05 10.4608L3.41117e-05 15.6828C3.41117e-05 18.0671 1.93636 20 4.32493 20C6.23131 20 7.77674 18.4573 7.77674 16.5543V14.085C7.77674 12.8593 8.77213 11.8657 10 11.8657C11.2279 11.8657 12.2233 12.8593 12.2233 14.085V16.5543C12.2233 18.4573 13.7687 20 15.6751 20C18.0636 20 20 18.0671 20 15.6828L20 10.4608C20.0003 8.65979 20.0005 7.55135 19.6539 6.54407C19.409 5.83199 19.0395 5.16888 18.5627 4.58552C17.8882 3.76032 16.9448 3.17576 15.4118 2.22596L15.1219 2.0463C13.4218 0.99212 12.3759 0.343613 11.2276 0.118955Z" fill="#FA6781"/>
</svg>
