<svg width="26" height="26" viewBox="0 0 26 26" fill="none" xmlns="http://www.w3.org/2000/svg">
<g id="tabler-icon-map-pin">
<g id="Vector">
<path d="M9.75004 11.9166C9.75004 12.7786 10.0925 13.6052 10.7019 14.2147C11.3114 14.8242 12.1381 15.1666 13 15.1666C13.862 15.1666 14.6886 14.8242 15.2981 14.2147C15.9076 13.6052 16.25 12.7786 16.25 11.9166C16.25 11.0547 15.9076 10.228 15.2981 9.61854C14.6886 9.00905 13.862 8.66664 13 8.66664C12.1381 8.66664 11.3114 9.00905 10.7019 9.61854C10.0925 10.228 9.75004 11.0547 9.75004 11.9166Z" stroke="#333333" stroke-width="1.5" stroke-linecap="round" stroke-linejoin="round"/>
<path d="M19.1285 18.0451L14.5319 22.6417C14.1256 23.0475 13.5748 23.2755 13.0006 23.2755C12.4263 23.2755 11.8756 23.0475 11.4693 22.6417L6.87163 18.0451C5.65962 16.833 4.83424 15.2887 4.49987 13.6076C4.1655 11.9264 4.33716 10.1839 4.99313 8.60028C5.6491 7.01668 6.75993 5.66316 8.18515 4.71087C9.61037 3.75858 11.286 3.25031 13 3.25031C14.7141 3.25031 16.3897 3.75858 17.8149 4.71087C19.2402 5.66316 20.351 7.01668 21.007 8.60028C21.6629 10.1839 21.8346 11.9264 21.5002 13.6076C21.1658 15.2887 20.3405 16.833 19.1285 18.0451Z" stroke="#333333" stroke-width="1.5" stroke-linecap="round" stroke-linejoin="round"/>
</g>
</g>
</svg>
