<svg width="30" height="30" viewBox="0 0 30 30" fill="none" xmlns="http://www.w3.org/2000/svg">
<path d="M12.5 20H20M5 10H8.75M5 15H8.75M5 20H8.75M25 7.5V22.5C25 23.163 24.7366 23.7989 24.2678 24.2678C23.7989 24.7366 23.163 25 22.5 25H10C9.33696 25 8.70107 24.7366 8.23223 24.2678C7.76339 23.7989 7.5 23.163 7.5 22.5V7.5C7.5 6.83696 7.76339 6.20107 8.23223 5.73223C8.70107 5.26339 9.33696 5 10 5H22.5C23.163 5 23.7989 5.26339 24.2678 5.73223C24.7366 6.20107 25 6.83696 25 7.5ZM13.75 13.75C13.75 14.413 14.0134 15.0489 14.4822 15.5178C14.9511 15.9866 15.587 16.25 16.25 16.25C16.913 16.25 17.5489 15.9866 18.0178 15.5178C18.4866 15.0489 18.75 14.413 18.75 13.75C18.75 13.087 18.4866 12.4511 18.0178 11.9822C17.5489 11.5134 16.913 11.25 16.25 11.25C15.587 11.25 14.9511 11.5134 14.4822 11.9822C14.0134 12.4511 13.75 13.087 13.75 13.75Z" stroke="#333333" stroke-width="1.5" stroke-linecap="round" stroke-linejoin="round"/>
</svg>
