<svg width="20" height="20" viewBox="0 0 20 20" fill="none" xmlns="http://www.w3.org/2000/svg">
<path fill-rule="evenodd" clip-rule="evenodd" d="M4.66163 8.32857e-07H4.56914H4.56911C3.76558 -2.14931e-05 3.09529 -4.01172e-05 2.55755 0.0635231C1.99253 0.13031 1.47465 0.276303 1.0312 0.640229C0.888387 0.757434 0.757434 0.888387 0.640229 1.0312C0.276303 1.47465 0.13031 1.99253 0.0635231 2.55755C-4.01131e-05 3.09529 -2.14931e-05 3.76558 8.32857e-07 4.56911V4.56914V4.66163V4.66166C-2.14931e-05 5.46519 -4.01172e-05 6.13548 0.0635231 6.67323C0.13031 7.23824 0.276303 7.75613 0.640229 8.19957C0.757434 8.34239 0.888387 8.47334 1.0312 8.59054C1.47465 8.95447 1.99253 9.10046 2.55755 9.16725C3.0953 9.23081 3.7656 9.23079 4.56914 9.23077H4.66163C5.46517 9.23079 6.13548 9.23081 6.67323 9.16725C7.23824 9.10046 7.75613 8.95447 8.19957 8.59054C8.34239 8.47334 8.47334 8.34239 8.59054 8.19957C8.95447 7.75613 9.10046 7.23824 9.16725 6.67323C9.23081 6.13548 9.23079 5.46517 9.23077 4.66163V4.56914C9.23079 3.7656 9.23081 3.0953 9.16725 2.55755C9.10046 1.99253 8.95447 1.47465 8.59054 1.0312C8.47334 0.888387 8.34239 0.757434 8.19957 0.640229C7.75613 0.276303 7.23824 0.13031 6.67323 0.0635231C6.13548 -4.01131e-05 5.46519 -2.14931e-05 4.66166 8.32857e-07H4.66163ZM4.66163 10.7692H4.56914C3.7656 10.7692 3.0953 10.7692 2.55755 10.8328C1.99253 10.8995 1.47465 11.0455 1.0312 11.4095C0.888387 11.5267 0.757434 11.6576 0.640229 11.8004C0.276303 12.2439 0.13031 12.7618 0.0635231 13.3268C-4.01131e-05 13.8645 -2.14931e-05 14.5348 8.32857e-07 15.3383V15.3384V15.4309V15.4309C-2.14931e-05 16.2344 -4.01172e-05 16.9047 0.0635231 17.4425C0.13031 18.0075 0.276303 18.5254 0.640229 18.9688C0.757434 19.1116 0.888387 19.2426 1.0312 19.3598C1.47465 19.7237 1.99253 19.8697 2.55755 19.9365C3.0953 20 3.7656 20 4.56914 20H4.66163C5.46517 20 6.13548 20 6.67323 19.9365C7.23824 19.8697 7.75613 19.7237 8.19957 19.3598C8.34239 19.2426 8.47334 19.1116 8.59054 18.9688C8.95447 18.5254 9.10046 18.0075 9.16725 17.4425C9.23081 16.9047 9.23079 16.2344 9.23077 15.4309V15.3384C9.23079 14.5348 9.23081 13.8645 9.16725 13.3268C9.10046 12.7618 8.95447 12.2439 8.59054 11.8004C8.47334 11.6576 8.34239 11.5267 8.19957 11.4095C7.75613 11.0455 7.23824 10.8995 6.67323 10.8328C6.13548 10.7692 5.46517 10.7692 4.66163 10.7692ZM15.4309 8.32857e-07H15.3384H15.3383C14.5348 -2.14931e-05 13.8645 -4.01172e-05 13.3268 0.0635231C12.7618 0.13031 12.2439 0.276303 11.8004 0.640229C11.6576 0.757434 11.5267 0.888387 11.4095 1.0312C11.0455 1.47465 10.8995 1.99253 10.8328 2.55755C10.7692 3.0953 10.7692 3.7656 10.7692 4.56914V4.66163C10.7692 5.46517 10.7692 6.13548 10.8328 6.67323C10.8995 7.23824 11.0455 7.75613 11.4095 8.19957C11.5267 8.34239 11.6576 8.47334 11.8004 8.59054C12.2439 8.95447 12.7618 9.10046 13.3268 9.16725C13.8645 9.23081 14.5348 9.23079 15.3384 9.23077H15.4309C16.2344 9.23079 16.9047 9.23081 17.4425 9.16725C18.0075 9.10046 18.5254 8.95447 18.9688 8.59054C19.1116 8.47334 19.2426 8.34239 19.3598 8.19957C19.7237 7.75613 19.8697 7.23824 19.9365 6.67323C20 6.13548 20 5.46517 20 4.66163V4.56914C20 3.7656 20 3.0953 19.9365 2.55755C19.8697 1.99253 19.7237 1.47465 19.3598 1.0312C19.2426 0.888387 19.1116 0.757434 18.9688 0.640229C18.5254 0.276303 18.0075 0.13031 17.4425 0.0635231C16.9047 -4.01131e-05 16.2344 -2.14931e-05 15.4309 8.32857e-07H15.4309ZM15.4309 10.7692H15.3384C14.5348 10.7692 13.8645 10.7692 13.3268 10.8328C12.7618 10.8995 12.2439 11.0455 11.8004 11.4095C11.6576 11.5267 11.5267 11.6576 11.4095 11.8004C11.0455 12.2439 10.8995 12.7618 10.8328 13.3268C10.7692 13.8645 10.7692 14.5348 10.7692 15.3384V15.4309C10.7692 16.2344 10.7692 16.9047 10.8328 17.4425C10.8995 18.0075 11.0455 18.5254 11.4095 18.9688C11.5267 19.1116 11.6576 19.2426 11.8004 19.3598C12.2439 19.7237 12.7618 19.8697 13.3268 19.9365C13.8645 20 14.5348 20 15.3384 20H15.4309C16.2344 20 16.9047 20 17.4425 19.9365C18.0075 19.8697 18.5254 19.7237 18.9688 19.3598C19.1116 19.2426 19.2426 19.1116 19.3598 18.9688C19.7237 18.5254 19.8697 18.0075 19.9365 17.4425C20 16.9047 20 16.2344 20 15.4309V15.3384C20 14.5348 20 13.8645 19.9365 13.3268C19.8697 12.7618 19.7237 12.2439 19.3598 11.8004C19.2426 11.6576 19.1116 11.5267 18.9688 11.4095C18.5254 11.0455 18.0075 10.8995 17.4425 10.8328C16.9047 10.7692 16.2344 10.7692 15.4309 10.7692Z" fill="white"/>
</svg>
