<svg width="16" height="16" viewBox="0 0 16 16" fill="none" xmlns="http://www.w3.org/2000/svg">
<g id="shape">
<path fill-rule="evenodd" clip-rule="evenodd" d="M2.77458 0.291776C3.49399 -0.0972588 4.36107 -0.0972589 5.08047 0.291777C5.39332 0.460956 5.67325 0.741239 6.04741 1.11586C6.06896 1.13744 6.09083 1.15933 6.11303 1.18153L6.93298 2.00148C6.97121 2.0397 7.00092 2.06941 7.02792 2.09835C7.67642 2.79365 7.82024 3.82056 7.3877 4.66727C7.36968 4.70254 7.34926 4.73929 7.32297 4.7866L7.31827 4.79507C7.27603 4.8711 7.26146 4.89746 7.24936 4.92092C6.93375 5.53297 6.98406 6.26964 7.37998 6.83309C7.39515 6.85468 7.41317 6.87882 7.46535 6.9484L7.55263 7.06477C7.63551 7.17527 7.6719 7.22375 7.70876 7.27085C8.00631 7.65105 8.34896 7.99369 8.72916 8.29125C8.77626 8.32811 8.82473 8.3645 8.93524 8.44738L9.05161 8.53465C9.12118 8.58684 9.14533 8.60485 9.16691 8.62002C9.73036 9.01594 10.467 9.06626 11.0791 8.75064C11.1025 8.73856 11.129 8.72393 11.2049 8.68174L11.2136 8.67694C11.2608 8.65071 11.2975 8.63031 11.3327 8.61232C12.1794 8.17978 13.2063 8.3236 13.9017 8.97211C13.9306 8.9991 13.9603 9.0288 13.9985 9.06704L14.8185 9.88699C14.8407 9.90919 14.8626 9.93105 14.8841 9.9526C15.2588 10.3268 15.539 10.6067 15.7082 10.9195C16.0973 11.6389 16.0973 12.506 15.7082 13.2254C15.539 13.5383 15.2588 13.8182 14.8841 14.1924C14.8626 14.2139 14.8407 14.2358 14.8185 14.258C14.799 14.2775 14.7797 14.2968 14.7606 14.3159C14.1928 14.8839 13.8255 15.2513 13.3642 15.5129C12.3569 16.0841 10.9576 16.1604 9.89412 15.7022C9.40727 15.4924 9.04239 15.1994 8.48286 14.7501C8.46593 14.7365 8.44882 14.7227 8.43152 14.7088C7.29107 13.7934 5.95092 12.6412 4.65486 11.3451C3.35881 10.0491 2.20665 8.70894 1.29116 7.56849C1.27727 7.5512 1.26353 7.53409 1.24994 7.51716C0.800601 6.95762 0.507588 6.59274 0.297802 6.10587C-0.160423 5.04244 -0.0840986 3.64313 0.487072 2.63584C0.74866 2.17452 1.11608 1.80724 1.68415 1.23939C1.70321 1.22033 1.72251 1.20105 1.74203 1.18153C1.76423 1.15933 1.78609 1.13744 1.80764 1.11586C2.1818 0.741239 2.46174 0.460956 2.77458 0.291776Z" fill="#201F29"/>
<path d="M13.2068 2.84322C12.6377 2.27418 11.8576 1.82414 11.0328 1.77246C10.6593 1.74905 10.3375 2.03286 10.3141 2.40636C10.2907 2.77986 10.5745 3.10161 10.948 3.12502C11.3517 3.15031 11.8385 3.39154 12.2485 3.8015C12.6584 4.21146 12.8997 4.69829 12.925 5.10197C12.9484 5.47547 13.2701 5.75928 13.6436 5.73587C14.0171 5.71247 14.3009 5.39072 14.2775 5.01722C14.2258 4.19238 13.7758 3.41226 13.2068 2.84322Z" fill="#201F29"/>
<path d="M11.4521 4.59175C11.0851 4.22473 10.5588 3.94001 9.97575 3.94001C9.60152 3.94 9.29814 4.24338 9.29814 4.61761C9.29814 4.99184 9.60152 5.29522 9.97575 5.29522C10.1181 5.29522 10.3171 5.37329 10.4938 5.55003C10.6706 5.72677 10.7486 5.9257 10.7486 6.06809C10.7486 6.44232 11.052 6.7457 11.4262 6.74569C11.8005 6.74569 12.1038 6.44232 12.1038 6.06809C12.1038 5.48503 11.8191 4.95876 11.4521 4.59175Z" fill="#201F29"/>
</g>
</svg>
