<svg width="18" height="19" viewBox="0 0 18 19" fill="none" xmlns="http://www.w3.org/2000/svg">
<g id="Group">
<path id="Vector" d="M9 0.70459C7.21997 0.70459 5.47991 1.23243 3.99987 2.22136C2.51983 3.2103 1.36628 4.6159 0.685088 6.26044C0.00389956 7.90497 -0.17433 9.71457 0.172937 11.4604C0.520203 13.2062 1.37737 14.8099 2.63604 16.0685C3.89472 17.3272 5.49836 18.1844 7.24419 18.5317C8.99002 18.8789 10.7996 18.7007 12.4442 18.0195C14.0887 17.3383 15.4943 16.1848 16.4832 14.7047C17.4722 13.2247 18 11.4846 18 9.70459C18 8.52269 17.7672 7.35237 17.3149 6.26044C16.8626 5.16851 16.1997 4.17636 15.364 3.34063C14.5282 2.5049 13.5361 1.84197 12.4442 1.38967C11.3522 0.937382 10.1819 0.70459 9 0.70459ZM9 16.9046C7.57598 16.9046 6.18393 16.4823 4.9999 15.6912C3.81586 14.9 2.89302 13.7755 2.34807 12.4599C1.80312 11.1443 1.66054 9.6966 1.93835 8.29994C2.21616 6.90327 2.9019 5.62036 3.90883 4.61342C4.91577 3.60648 6.19869 2.92075 7.59535 2.64294C8.99202 2.36512 10.4397 2.50771 11.7553 3.05266C13.071 3.59761 14.1954 4.52045 14.9866 5.70448C15.7777 6.88852 16.2 8.28056 16.2 9.70459C16.2 11.6141 15.4414 13.4455 14.0912 14.7958C12.7409 16.146 10.9096 16.9046 9 16.9046Z" fill="#666666"/>
</g>
</svg>
