<svg width="18" height="19" viewBox="0 0 18 19" fill="none" xmlns="http://www.w3.org/2000/svg">
<g id="Group">
<path id="Vector" d="M9 0.873535C7.21997 0.873535 5.47991 1.40138 3.99987 2.39031C2.51983 3.37924 1.36628 4.78485 0.685088 6.42938C0.00389956 8.07392 -0.17433 9.88352 0.172937 11.6293C0.520203 13.3752 1.37737 14.9788 2.63604 16.2375C3.89472 17.4962 5.49836 18.3533 7.24419 18.7006C8.99002 19.0479 10.7996 18.8696 12.4442 18.1884C14.0887 17.5073 15.4943 16.3537 16.4832 14.8737C17.4722 13.3936 18 11.6536 18 9.87353C18 8.69164 17.7672 7.52131 17.3149 6.42938C16.8626 5.33745 16.1997 4.3453 15.364 3.50957C14.5282 2.67385 13.5361 2.01091 12.4442 1.55862C11.3522 1.10633 10.1819 0.873535 9 0.873535ZM9 17.0735C7.57598 17.0735 6.18393 16.6513 4.9999 15.8601C3.81586 15.069 2.89302 13.9445 2.34807 12.6289C1.80312 11.3132 1.66054 9.86555 1.93835 8.46888C2.21616 7.07222 2.9019 5.7893 3.90883 4.78237C4.91577 3.77543 6.19869 3.08969 7.59535 2.81188C8.99202 2.53407 10.4397 2.67665 11.7553 3.2216C13.071 3.76655 14.1954 4.68939 14.9866 5.87343C15.7777 7.05746 16.2 8.44951 16.2 9.87353C16.2 11.7831 15.4414 13.6144 14.0912 14.9647C12.7409 16.315 10.9096 17.0735 9 17.0735Z" fill="#FA6781"/>
<path id="Vector_2" d="M9 5.37366C8.10999 5.37366 7.23996 5.63758 6.49994 6.13204C5.75991 6.62651 5.18314 7.32931 4.84254 8.15158C4.50195 8.97385 4.41283 9.87865 4.58647 10.7516C4.7601 11.6245 5.18869 12.4263 5.81802 13.0556C6.44736 13.685 7.24918 14.1136 8.1221 14.2872C8.99501 14.4608 9.89981 14.3717 10.7221 14.0311C11.5443 13.6905 12.2471 13.1137 12.7416 12.3737C13.2361 11.6337 13.5 10.7637 13.5 9.87366C13.5 8.68018 13.0259 7.53559 12.182 6.69168C11.3381 5.84776 10.1935 5.37366 9 5.37366Z" fill="#FA6781"/>
</g>
</svg>
