<svg width="16" height="20" viewBox="0 0 16 20" fill="none" xmlns="http://www.w3.org/2000/svg">
<g id="shape">
<path d="M3.25 4.30381C3.25 1.8348 5.47385 1.52588e-05 8 1.52588e-05C10.5261 1.52588e-05 12.75 1.8348 12.75 4.30381C12.75 6.77283 10.5261 8.60761 8 8.60761C5.47385 8.60761 3.25 6.77283 3.25 4.30381Z" fill="#333333"/>
<path d="M1.78199 19.9879C1.89067 20 2.01982 20 2.27814 20H13.7219C13.9802 20 14.1093 20 14.218 19.9879C15.15 19.8844 15.8859 19.1392 15.9881 18.1954C16 18.0854 16 17.9546 16 17.693V17.183C16 15.0888 14.9238 13.1455 13.1592 12.0535C9.99201 10.0935 6.00799 10.0935 2.84083 12.0535C1.07623 13.1455 0 15.0888 0 17.183V17.693C0 17.9546 0 18.0854 0.0119181 18.1954C0.114119 19.1392 0.85001 19.8844 1.78199 19.9879Z" fill="#333333"/>
</g>
</svg>
