<svg width="30" height="30" viewBox="0 0 30 30" fill="none" xmlns="http://www.w3.org/2000/svg">
<g id="tabler-icon-message-chatbot">
<path id="Vector" d="M11.875 11.25H11.8875M18.125 11.25H18.1375M11.875 16.25C12.2823 16.6657 12.7686 16.996 13.3052 17.2215C13.8418 17.447 14.418 17.5631 15 17.5631C15.582 17.5631 16.1582 17.447 16.6948 17.2215C17.2314 16.996 17.7177 16.6657 18.125 16.25M5 26.25V10C5 9.00544 5.39509 8.05161 6.09835 7.34835C6.80161 6.64509 7.75544 6.25 8.75 6.25H21.25C22.2446 6.25 23.1984 6.64509 23.9017 7.34835C24.6049 8.05161 25 9.00544 25 10V17.5C25 18.4946 24.6049 19.4484 23.9017 20.1517C23.1984 20.8549 22.2446 21.25 21.25 21.25H10L5 26.25Z" stroke="#333333" stroke-width="1.5" stroke-linecap="round" stroke-linejoin="round"/>
</g>
</svg>
