<svg width="30" height="30" viewBox="0 0 30 30" fill="none" xmlns="http://www.w3.org/2000/svg">
<g id="tabler-icon-gavel">
<path id="Vector" d="M16.25 12.5L25.4787 21.7725C26.5075 22.7975 26.5075 24.4575 25.4787 25.4812C24.9845 25.9728 24.3158 26.2487 23.6188 26.2487C22.9217 26.2487 22.253 25.9728 21.7587 25.4812L12.5 16.25M16.25 12.5L11.25 7.49997M16.25 12.5L16.8748 13.1249L19.7411 10.2587C19.9754 10.0243 20.107 9.70639 20.107 9.37493C20.107 9.04348 19.9754 8.72559 19.7411 8.49118L15.2586 4.00868C15.0242 3.77434 14.7063 3.6427 14.3748 3.6427C14.0434 3.6427 13.7255 3.77434 13.4911 4.00868L10.6248 6.87493L11.25 7.49997M16.25 12.5L12.5 16.25M12.5 16.25L7.5 11.25M12.5 16.25L13.1248 16.8749L10.2586 19.7412C10.0242 19.9755 9.70627 20.1072 9.37481 20.1072C9.04336 20.1072 8.72547 19.9755 8.49106 19.7412L4.00856 15.2587C3.77422 15.0243 3.64258 14.7064 3.64258 14.3749C3.64258 14.0435 3.77422 13.7256 4.00856 13.4912L6.87481 10.6249L7.5 11.25M7.5 11.25L11.25 7.49997M3.75 26.25H12.5" stroke="#333333" stroke-width="1.5" stroke-linecap="round" stroke-linejoin="round"/>
</g>
</svg>
