<svg width="30" height="30" viewBox="0 0 30 30" fill="none" xmlns="http://www.w3.org/2000/svg">
<g id="tabler-icon-truck-return">
<path id="Vector" d="M6.25 21.25C6.25 21.913 6.51339 22.5489 6.98223 23.0178C7.45107 23.4866 8.08696 23.75 8.75 23.75C9.41304 23.75 10.0489 23.4866 10.5178 23.0178C10.9866 22.5489 11.25 21.913 11.25 21.25M6.25 21.25C6.25 20.587 6.51339 19.9511 6.98223 19.4822C7.45107 19.0134 8.08696 18.75 8.75 18.75C9.41304 18.75 10.0489 19.0134 10.5178 19.4822C10.9866 19.9511 11.25 20.587 11.25 21.25M6.25 21.25H3.75V7.5C3.75 7.16848 3.8817 6.85054 4.11612 6.61612C4.35054 6.3817 4.66848 6.25 5 6.25H16.25V13.75H10M11.25 21.25H18.75M18.75 21.25C18.75 21.913 19.0134 22.5489 19.4822 23.0178C19.9511 23.4866 20.587 23.75 21.25 23.75C21.913 23.75 22.5489 23.4866 23.0178 23.0178C23.4866 22.5489 23.75 21.913 23.75 21.25M18.75 21.25C18.75 20.587 19.0134 19.9511 19.4822 19.4822C19.9511 19.0134 20.587 18.75 21.25 18.75C21.913 18.75 22.5489 19.0134 23.0178 19.4822C23.4866 19.9511 23.75 20.587 23.75 21.25M23.75 21.25H26.25V13.75L22.5 7.5H16.25M10 13.75L12.5 16.25M10 13.75L12.5 11.25" stroke="#333333" stroke-width="1.5" stroke-linecap="round" stroke-linejoin="round"/>
</g>
</svg>
